TITLE ""
FILE "1Q_t_0930-0939.mp3" MP3
  TRACK 01 AUDIO
    TITLE "1Q_t_0930-0939_01"
    INDEX 01 00:00:00
  TRACK 02 AUDIO
    TITLE "1Q_t_0930-0939_02"
    INDEX 01 00:01:18
  TRACK 03 AUDIO
    TITLE "1Q_t_0930-0939_03"
    INDEX 01 00:01:27
  TRACK 04 AUDIO
    TITLE "1Q_t_0930-0939_04"
    INDEX 01 00:02:46
  TRACK 05 AUDIO
    TITLE "1Q_t_0930-0939_05"
    INDEX 01 00:02:54
  TRACK 06 AUDIO
    TITLE "1Q_t_0930-0939_06"
    INDEX 01 00:07:22
  TRACK 07 AUDIO
    TITLE "1Q_t_0930-0939_07"
    INDEX 01 00:07:67
  TRACK 08 AUDIO
    TITLE "1Q_t_0930-0939_08"
    INDEX 01 00:09:03
  TRACK 09 AUDIO
    TITLE "1Q_t_0930-0939_09"
    INDEX 01 00:09:13
  TRACK 10 AUDIO
    TITLE "1Q_t_0930-0939_10"
    INDEX 01 00:10:52
  TRACK 11 AUDIO
    TITLE "1Q_t_0930-0939_11"
    INDEX 01 00:10:58
  TRACK 12 AUDIO
    TITLE "1Q_t_0930-0939_12"
    INDEX 01 00:16:21
  TRACK 13 AUDIO
    TITLE "1Q_t_0930-0939_13"
    INDEX 01 00:16:66
  TRACK 14 AUDIO
    TITLE "1Q_t_0930-0939_14"
    INDEX 01 00:18:04
  TRACK 15 AUDIO
    TITLE "1Q_t_0930-0939_15"
    INDEX 01 00:18:14
  TRACK 16 AUDIO
    TITLE "1Q_t_0930-0939_16"
    INDEX 01 00:22:06
  TRACK 17 AUDIO
    TITLE "1Q_t_0930-0939_17"
    INDEX 01 00:22:16
  TRACK 18 AUDIO
    TITLE "1Q_t_0930-0939_18"
    INDEX 01 00:27:66
  TRACK 19 AUDIO
    TITLE "1Q_t_0930-0939_19"
    INDEX 01 00:28:38
  TRACK 20 AUDIO
    TITLE "1Q_t_0930-0939_20"
    INDEX 01 00:29:57
  TRACK 21 AUDIO
    TITLE "1Q_t_0930-0939_21"
    INDEX 01 00:29:67
  TRACK 22 AUDIO
    TITLE "1Q_t_0930-0939_22"
    INDEX 01 00:31:40
  TRACK 23 AUDIO
    TITLE "1Q_t_0930-0939_23"
    INDEX 01 00:31:48
  TRACK 24 AUDIO
    TITLE "1Q_t_0930-0939_24"
    INDEX 01 00:35:32
  TRACK 25 AUDIO
    TITLE "1Q_t_0930-0939_25"
    INDEX 01 00:36:02
  TRACK 26 AUDIO
    TITLE "1Q_t_0930-0939_26"
    INDEX 01 00:37:21
  TRACK 27 AUDIO
    TITLE "1Q_t_0930-0939_27"
    INDEX 01 00:37:29
  TRACK 28 AUDIO
    TITLE "1Q_t_0930-0939_28"
    INDEX 01 00:38:70
  TRACK 29 AUDIO
    TITLE "1Q_t_0930-0939_29"
    INDEX 01 00:39:01
  TRACK 30 AUDIO
    TITLE "1Q_t_0930-0939_30"
    INDEX 01 00:43:16
  TRACK 31 AUDIO
    TITLE "1Q_t_0930-0939_31"
    INDEX 01 00:43:61
  TRACK 32 AUDIO
    TITLE "1Q_t_0930-0939_32"
    INDEX 01 00:45:03
  TRACK 33 AUDIO
    TITLE "1Q_t_0930-0939_33"
    INDEX 01 00:45:17
  TRACK 34 AUDIO
    TITLE "1Q_t_0930-0939_34"
    INDEX 01 00:47:02
  TRACK 35 AUDIO
    TITLE "1Q_t_0930-0939_35"
    INDEX 01 00:47:08
  TRACK 36 AUDIO
    TITLE "1Q_t_0930-0939_36"
    INDEX 01 00:51:21
  TRACK 37 AUDIO
    TITLE "1Q_t_0930-0939_37"
    INDEX 01 00:51:66
  TRACK 38 AUDIO
    TITLE "1Q_t_0930-0939_38"
    INDEX 01 00:53:26
  TRACK 39 AUDIO
    TITLE "1Q_t_0930-0939_39"
    INDEX 01 00:53:34
  TRACK 40 AUDIO
    TITLE "1Q_t_0930-0939_40"
    INDEX 01 00:55:15
  TRACK 41 AUDIO
    TITLE "1Q_t_0930-0939_41"
    INDEX 01 00:55:23
  TRACK 42 AUDIO
    TITLE "1Q_t_0930-0939_42"
    INDEX 01 01:01:45
  TRACK 43 AUDIO
    TITLE "1Q_t_0930-0939_43"
    INDEX 01 01:02:15
  TRACK 44 AUDIO
    TITLE "1Q_t_0930-0939_44"
    INDEX 01 01:03:21
  TRACK 45 AUDIO
    TITLE "1Q_t_0930-0939_45"
    INDEX 01 01:03:30
  TRACK 46 AUDIO
    TITLE "1Q_t_0930-0939_46"
    INDEX 01 01:07:44
  TRACK 47 AUDIO
    TITLE "1Q_t_0930-0939_47"
    INDEX 01 01:07:50
  TRACK 48 AUDIO
    TITLE "1Q_t_0930-0939_48"
    INDEX 01 01:13:45
  TRACK 49 AUDIO
    TITLE "1Q_t_0930-0939_49"
    INDEX 01 01:14:17
  TRACK 50 AUDIO
    TITLE "1Q_t_0930-0939_50"
    INDEX 01 01:15:32
  TRACK 51 AUDIO
    TITLE "1Q_t_0930-0939_51"
    INDEX 01 01:15:39
  TRACK 52 AUDIO
    TITLE "1Q_t_0930-0939_52"
    INDEX 01 01:18:63
  TRACK 53 AUDIO
    TITLE "1Q_t_0930-0939_53"
    INDEX 01 01:18:69
  TRACK 54 AUDIO
    TITLE "1Q_t_0930-0939_54"
    INDEX 01 01:23:00
  TRACK 55 AUDIO
    TITLE "1Q_t_0930-0939_55"
    INDEX 01 01:23:45
  TRACK 56 AUDIO
    TITLE "1Q_t_0930-0939_56"
    INDEX 01 01:24:68
  TRACK 57 AUDIO
    TITLE "1Q_t_0930-0939_57"
    INDEX 01 01:25:03
  TRACK 58 AUDIO
    TITLE "1Q_t_0930-0939_58"
    INDEX 01 01:27:58
  TRACK 59 AUDIO
    TITLE "1Q_t_0930-0939_59"
    INDEX 01 01:27:64
  TRACK 60 AUDIO
    TITLE "1Q_t_0930-0939_60"
    INDEX 01 01:32:60
